<mxfile host="app.diagrams.net" modified="2022-04-21T18:11:59.501Z" agent="5.0 (Windows NT 10.0; Win64; x64) AppleWebKit/537.36 (KHTML, like Gecko) Chrome/100.0.4896.75 Safari/537.36" etag="vdQykBnnv9ShPjAr65v0" version="17.4.1" type="github" pages="2">
  <diagram id="kgpKYQtTHZ0yAKxKKP6v" name="Data Flows">
    <mxGraphModel dx="1354" dy="756" grid="1" gridSize="10" guides="1" tooltips="1" connect="1" arrows="1" fold="1" page="1" pageScale="1" pageWidth="850" pageHeight="1100" math="0" shadow="0">
      <root>
        <mxCell id="0" />
        <mxCell id="1" parent="0" />
        <mxCell id="3nuBFxr9cyL0pnOWT2aG-1" value="Inventory Transfers" style="shape=table;childLayout=tableLayout;startSize=40;collapsible=0;recursiveResize=0;expand=0;fillColor=none;fontStyle=1" parent="1" vertex="1">
          <mxGeometry x="90" y="40" width="1360" height="791" as="geometry" />
        </mxCell>
        <mxCell id="3nuBFxr9cyL0pnOWT2aG-3" value="Intra Warehouse Transfer" style="shape=tableRow;horizontal=0;swimlaneHead=0;swimlaneBody=0;top=0;left=0;bottom=0;right=0;fillColor=none;points=[[0,0.5],[1,0.5]];portConstraint=eastwest;startSize=40;collapsible=0;recursiveResize=0;expand=0;fontStyle=1;" parent="3nuBFxr9cyL0pnOWT2aG-1" vertex="1">
          <mxGeometry y="40" width="1360" height="570" as="geometry" />
        </mxCell>
        <mxCell id="3nuBFxr9cyL0pnOWT2aG-4" value="Client" style="swimlane;swimlaneHead=0;swimlaneBody=0;connectable=0;fillColor=none;startSize=30;collapsible=0;recursiveResize=0;expand=0;fontStyle=1;" parent="3nuBFxr9cyL0pnOWT2aG-3" vertex="1">
          <mxGeometry x="40" width="420" height="570" as="geometry">
            <mxRectangle width="420" height="570" as="alternateBounds" />
          </mxGeometry>
        </mxCell>
        <mxCell id="xzN3ZJDw3OYeMU-9DskR-10" style="edgeStyle=orthogonalEdgeStyle;rounded=0;orthogonalLoop=1;jettySize=auto;html=1;exitX=0.5;exitY=0.5;exitDx=0;exitDy=15;exitPerimeter=0;" edge="1" parent="3nuBFxr9cyL0pnOWT2aG-4" source="xzN3ZJDw3OYeMU-9DskR-3" target="xzN3ZJDw3OYeMU-9DskR-4">
          <mxGeometry relative="1" as="geometry" />
        </mxCell>
        <mxCell id="xzN3ZJDw3OYeMU-9DskR-3" value="Start" style="html=1;dashed=0;whitespace=wrap;shape=mxgraph.dfd.start" vertex="1" parent="3nuBFxr9cyL0pnOWT2aG-4">
          <mxGeometry x="100" y="60" width="80" height="30" as="geometry" />
        </mxCell>
        <mxCell id="xzN3ZJDw3OYeMU-9DskR-4" value="Create &lt;br&gt;Transfer Request" style="html=1;dashed=0;whitespace=wrap;align=center;" vertex="1" parent="3nuBFxr9cyL0pnOWT2aG-4">
          <mxGeometry x="89" y="150" width="102" height="50" as="geometry" />
        </mxCell>
        <mxCell id="xzN3ZJDw3OYeMU-9DskR-9" value="API Response" style="html=1;dashed=0;whitespace=wrap;" vertex="1" parent="3nuBFxr9cyL0pnOWT2aG-4">
          <mxGeometry x="90" y="240" width="100" height="50" as="geometry" />
        </mxCell>
        <mxCell id="xzN3ZJDw3OYeMU-9DskR-49" value="Inventory Transfer&lt;br&gt;Web Confirmation" style="html=1;dashed=0;whitespace=wrap;" vertex="1" parent="3nuBFxr9cyL0pnOWT2aG-4">
          <mxGeometry x="91" y="330" width="100" height="50" as="geometry" />
        </mxCell>
        <mxCell id="3nuBFxr9cyL0pnOWT2aG-8" value="Bridge" style="swimlane;swimlaneHead=0;swimlaneBody=0;connectable=0;fillColor=none;startSize=30;collapsible=0;recursiveResize=0;expand=0;fontStyle=1;" parent="3nuBFxr9cyL0pnOWT2aG-3" vertex="1">
          <mxGeometry x="460" width="688" height="570" as="geometry">
            <mxRectangle width="688" height="570" as="alternateBounds" />
          </mxGeometry>
        </mxCell>
        <mxCell id="xzN3ZJDw3OYeMU-9DskR-12" style="edgeStyle=orthogonalEdgeStyle;rounded=0;orthogonalLoop=1;jettySize=auto;html=1;exitX=0.5;exitY=1;exitDx=0;exitDy=0;" edge="1" parent="3nuBFxr9cyL0pnOWT2aG-8" source="xzN3ZJDw3OYeMU-9DskR-7" target="xzN3ZJDw3OYeMU-9DskR-8">
          <mxGeometry relative="1" as="geometry" />
        </mxCell>
        <mxCell id="xzN3ZJDw3OYeMU-9DskR-7" value="API Endpoint" style="html=1;dashed=0;whitespace=wrap;" vertex="1" parent="3nuBFxr9cyL0pnOWT2aG-8">
          <mxGeometry x="34" y="50" width="100" height="50" as="geometry" />
        </mxCell>
        <mxCell id="xzN3ZJDw3OYeMU-9DskR-28" style="edgeStyle=orthogonalEdgeStyle;rounded=0;orthogonalLoop=1;jettySize=auto;html=1;exitX=1;exitY=0.5;exitDx=0;exitDy=0;" edge="1" parent="3nuBFxr9cyL0pnOWT2aG-8" source="xzN3ZJDw3OYeMU-9DskR-8" target="xzN3ZJDw3OYeMU-9DskR-21">
          <mxGeometry relative="1" as="geometry" />
        </mxCell>
        <mxCell id="xzN3ZJDw3OYeMU-9DskR-29" value="Yes" style="edgeLabel;html=1;align=center;verticalAlign=middle;resizable=0;points=[];" vertex="1" connectable="0" parent="xzN3ZJDw3OYeMU-9DskR-28">
          <mxGeometry x="-0.2215" y="4" relative="1" as="geometry">
            <mxPoint as="offset" />
          </mxGeometry>
        </mxCell>
        <mxCell id="xzN3ZJDw3OYeMU-9DskR-8" value="Valid?" style="shape=rhombus;html=1;dashed=0;whitespace=wrap;perimeter=rhombusPerimeter;" vertex="1" parent="3nuBFxr9cyL0pnOWT2aG-8">
          <mxGeometry x="54" y="170" width="60" height="50" as="geometry" />
        </mxCell>
        <mxCell id="xzN3ZJDw3OYeMU-9DskR-34" style="edgeStyle=orthogonalEdgeStyle;rounded=0;orthogonalLoop=1;jettySize=auto;html=1;exitX=1;exitY=0.5;exitDx=0;exitDy=0;" edge="1" parent="3nuBFxr9cyL0pnOWT2aG-8" source="xzN3ZJDw3OYeMU-9DskR-21" target="xzN3ZJDw3OYeMU-9DskR-33">
          <mxGeometry relative="1" as="geometry" />
        </mxCell>
        <mxCell id="xzN3ZJDw3OYeMU-9DskR-39" value="Yes" style="edgeLabel;html=1;align=center;verticalAlign=middle;resizable=0;points=[];" vertex="1" connectable="0" parent="xzN3ZJDw3OYeMU-9DskR-34">
          <mxGeometry x="-0.1081" y="-2" relative="1" as="geometry">
            <mxPoint as="offset" />
          </mxGeometry>
        </mxCell>
        <mxCell id="xzN3ZJDw3OYeMU-9DskR-21" value="Ship To&amp;nbsp;&lt;br&gt;Warehouse?" style="shape=rhombus;html=1;dashed=0;whitespace=wrap;perimeter=rhombusPerimeter;" vertex="1" parent="3nuBFxr9cyL0pnOWT2aG-8">
          <mxGeometry x="173" y="155" width="86" height="80" as="geometry" />
        </mxCell>
        <mxCell id="xzN3ZJDw3OYeMU-9DskR-22" value="Create Sales&lt;br&gt;Order Request To&lt;br&gt;WMS" style="html=1;dashed=0;whitespace=wrap;" vertex="1" parent="3nuBFxr9cyL0pnOWT2aG-8">
          <mxGeometry x="333" y="50" width="100" height="50" as="geometry" />
        </mxCell>
        <mxCell id="xzN3ZJDw3OYeMU-9DskR-35" style="edgeStyle=orthogonalEdgeStyle;rounded=0;orthogonalLoop=1;jettySize=auto;html=1;exitX=0.5;exitY=0;exitDx=0;exitDy=0;" edge="1" parent="3nuBFxr9cyL0pnOWT2aG-8" source="xzN3ZJDw3OYeMU-9DskR-33" target="xzN3ZJDw3OYeMU-9DskR-22">
          <mxGeometry relative="1" as="geometry" />
        </mxCell>
        <mxCell id="xzN3ZJDw3OYeMU-9DskR-33" value="Flag Request as&amp;nbsp;&lt;br&gt;Intra Warehouse&lt;br&gt;Transfer" style="html=1;dashed=0;whitespace=wrap;" vertex="1" parent="3nuBFxr9cyL0pnOWT2aG-8">
          <mxGeometry x="333" y="170" width="100" height="50" as="geometry" />
        </mxCell>
        <mxCell id="xzN3ZJDw3OYeMU-9DskR-53" style="edgeStyle=orthogonalEdgeStyle;rounded=0;orthogonalLoop=1;jettySize=auto;html=1;exitX=0.5;exitY=1;exitDx=0;exitDy=0;" edge="1" parent="3nuBFxr9cyL0pnOWT2aG-8" source="xzN3ZJDw3OYeMU-9DskR-47" target="xzN3ZJDw3OYeMU-9DskR-52">
          <mxGeometry relative="1" as="geometry" />
        </mxCell>
        <mxCell id="xzN3ZJDw3OYeMU-9DskR-47" value="Confirmation&lt;br&gt;Process" style="html=1;dashed=0;whitespace=wrap;" vertex="1" parent="3nuBFxr9cyL0pnOWT2aG-8">
          <mxGeometry x="470" y="240" width="100" height="50" as="geometry" />
        </mxCell>
        <mxCell id="xzN3ZJDw3OYeMU-9DskR-52" value="Create ASN For&amp;nbsp;&lt;br&gt;Ship To&lt;br&gt;&amp;nbsp;Warehouse" style="html=1;dashed=0;whitespace=wrap;" vertex="1" parent="3nuBFxr9cyL0pnOWT2aG-8">
          <mxGeometry x="470" y="330" width="100" height="50" as="geometry" />
        </mxCell>
        <mxCell id="xzN3ZJDw3OYeMU-9DskR-58" value="ASN Marked&lt;br&gt;Completed" style="html=1;dashed=0;whitespace=wrap;" vertex="1" parent="3nuBFxr9cyL0pnOWT2aG-8">
          <mxGeometry x="470" y="420" width="100" height="50" as="geometry" />
        </mxCell>
        <mxCell id="3nuBFxr9cyL0pnOWT2aG-11" value="SCALE WMS" style="swimlane;swimlaneHead=0;swimlaneBody=0;connectable=0;fillColor=none;startSize=30;collapsible=0;recursiveResize=0;expand=0;fontStyle=1;" parent="3nuBFxr9cyL0pnOWT2aG-3" vertex="1">
          <mxGeometry x="1148" width="212" height="570" as="geometry">
            <mxRectangle width="212" height="570" as="alternateBounds" />
          </mxGeometry>
        </mxCell>
        <mxCell id="xzN3ZJDw3OYeMU-9DskR-43" style="edgeStyle=orthogonalEdgeStyle;rounded=0;orthogonalLoop=1;jettySize=auto;html=1;exitX=0.5;exitY=1;exitDx=0;exitDy=0;" edge="1" parent="3nuBFxr9cyL0pnOWT2aG-11" source="xzN3ZJDw3OYeMU-9DskR-23" target="xzN3ZJDw3OYeMU-9DskR-25">
          <mxGeometry relative="1" as="geometry" />
        </mxCell>
        <mxCell id="xzN3ZJDw3OYeMU-9DskR-23" value="Sale Order&lt;br&gt;Creation" style="html=1;dashed=0;whitespace=wrap;" vertex="1" parent="3nuBFxr9cyL0pnOWT2aG-11">
          <mxGeometry x="30" y="50" width="100" height="50" as="geometry" />
        </mxCell>
        <mxCell id="xzN3ZJDw3OYeMU-9DskR-45" style="edgeStyle=orthogonalEdgeStyle;rounded=0;orthogonalLoop=1;jettySize=auto;html=1;exitX=0.5;exitY=1;exitDx=0;exitDy=0;entryX=0.5;entryY=0;entryDx=0;entryDy=0;" edge="1" parent="3nuBFxr9cyL0pnOWT2aG-11" source="xzN3ZJDw3OYeMU-9DskR-25" target="xzN3ZJDw3OYeMU-9DskR-44">
          <mxGeometry relative="1" as="geometry" />
        </mxCell>
        <mxCell id="xzN3ZJDw3OYeMU-9DskR-25" value="Allocation" style="html=1;dashed=0;whitespace=wrap;" vertex="1" parent="3nuBFxr9cyL0pnOWT2aG-11">
          <mxGeometry x="30" y="140" width="100" height="50" as="geometry" />
        </mxCell>
        <mxCell id="xzN3ZJDw3OYeMU-9DskR-44" value="Ship Confirm" style="html=1;dashed=0;whitespace=wrap;" vertex="1" parent="3nuBFxr9cyL0pnOWT2aG-11">
          <mxGeometry x="30" y="240" width="100" height="50" as="geometry" />
        </mxCell>
        <mxCell id="xzN3ZJDw3OYeMU-9DskR-55" value="ASN Creation" style="html=1;dashed=0;whitespace=wrap;" vertex="1" parent="3nuBFxr9cyL0pnOWT2aG-11">
          <mxGeometry x="30" y="330" width="100" height="50" as="geometry" />
        </mxCell>
        <mxCell id="xzN3ZJDw3OYeMU-9DskR-57" value="ASN Receipts&amp;nbsp;&lt;br&gt;and Closing" style="html=1;dashed=0;whitespace=wrap;" vertex="1" parent="3nuBFxr9cyL0pnOWT2aG-11">
          <mxGeometry x="30" y="420" width="100" height="50" as="geometry" />
        </mxCell>
        <mxCell id="xzN3ZJDw3OYeMU-9DskR-11" style="edgeStyle=orthogonalEdgeStyle;rounded=0;orthogonalLoop=1;jettySize=auto;html=1;exitX=1;exitY=0.5;exitDx=0;exitDy=0;entryX=0;entryY=0.5;entryDx=0;entryDy=0;" edge="1" parent="3nuBFxr9cyL0pnOWT2aG-3" source="xzN3ZJDw3OYeMU-9DskR-4" target="xzN3ZJDw3OYeMU-9DskR-7">
          <mxGeometry relative="1" as="geometry" />
        </mxCell>
        <mxCell id="xzN3ZJDw3OYeMU-9DskR-13" style="edgeStyle=orthogonalEdgeStyle;rounded=0;orthogonalLoop=1;jettySize=auto;html=1;exitX=0;exitY=0.5;exitDx=0;exitDy=0;entryX=1;entryY=0.25;entryDx=0;entryDy=0;" edge="1" parent="3nuBFxr9cyL0pnOWT2aG-3" source="xzN3ZJDw3OYeMU-9DskR-8" target="xzN3ZJDw3OYeMU-9DskR-9">
          <mxGeometry relative="1" as="geometry" />
        </mxCell>
        <mxCell id="xzN3ZJDw3OYeMU-9DskR-14" value="No - 400 Response" style="edgeLabel;html=1;align=center;verticalAlign=middle;resizable=0;points=[];" vertex="1" connectable="0" parent="xzN3ZJDw3OYeMU-9DskR-13">
          <mxGeometry x="-0.756" y="-2" relative="1" as="geometry">
            <mxPoint x="-36" y="2" as="offset" />
          </mxGeometry>
        </mxCell>
        <mxCell id="xzN3ZJDw3OYeMU-9DskR-16" style="edgeStyle=orthogonalEdgeStyle;rounded=0;orthogonalLoop=1;jettySize=auto;html=1;exitX=0.5;exitY=1;exitDx=0;exitDy=0;entryX=1;entryY=0.75;entryDx=0;entryDy=0;" edge="1" parent="3nuBFxr9cyL0pnOWT2aG-3" source="xzN3ZJDw3OYeMU-9DskR-8" target="xzN3ZJDw3OYeMU-9DskR-9">
          <mxGeometry relative="1" as="geometry" />
        </mxCell>
        <mxCell id="xzN3ZJDw3OYeMU-9DskR-17" value="Yes - 200 Response" style="edgeLabel;html=1;align=center;verticalAlign=middle;resizable=0;points=[];" vertex="1" connectable="0" parent="xzN3ZJDw3OYeMU-9DskR-16">
          <mxGeometry x="-0.4337" y="2" relative="1" as="geometry">
            <mxPoint x="-42" as="offset" />
          </mxGeometry>
        </mxCell>
        <mxCell id="xzN3ZJDw3OYeMU-9DskR-36" style="edgeStyle=orthogonalEdgeStyle;rounded=0;orthogonalLoop=1;jettySize=auto;html=1;exitX=1;exitY=0.5;exitDx=0;exitDy=0;" edge="1" parent="3nuBFxr9cyL0pnOWT2aG-3" source="xzN3ZJDw3OYeMU-9DskR-22" target="xzN3ZJDw3OYeMU-9DskR-23">
          <mxGeometry relative="1" as="geometry" />
        </mxCell>
        <mxCell id="xzN3ZJDw3OYeMU-9DskR-48" style="edgeStyle=orthogonalEdgeStyle;rounded=0;orthogonalLoop=1;jettySize=auto;html=1;exitX=0;exitY=0.5;exitDx=0;exitDy=0;" edge="1" parent="3nuBFxr9cyL0pnOWT2aG-3" source="xzN3ZJDw3OYeMU-9DskR-44" target="xzN3ZJDw3OYeMU-9DskR-47">
          <mxGeometry relative="1" as="geometry" />
        </mxCell>
        <mxCell id="xzN3ZJDw3OYeMU-9DskR-50" style="edgeStyle=orthogonalEdgeStyle;rounded=0;orthogonalLoop=1;jettySize=auto;html=1;exitX=0;exitY=0.5;exitDx=0;exitDy=0;entryX=1;entryY=0.5;entryDx=0;entryDy=0;" edge="1" parent="3nuBFxr9cyL0pnOWT2aG-3" source="xzN3ZJDw3OYeMU-9DskR-47" target="xzN3ZJDw3OYeMU-9DskR-49">
          <mxGeometry relative="1" as="geometry" />
        </mxCell>
        <mxCell id="xzN3ZJDw3OYeMU-9DskR-51" value="Update Status to Shipped" style="edgeLabel;html=1;align=center;verticalAlign=middle;resizable=0;points=[];" vertex="1" connectable="0" parent="xzN3ZJDw3OYeMU-9DskR-50">
          <mxGeometry x="-0.5817" y="2" relative="1" as="geometry">
            <mxPoint x="55" y="-2" as="offset" />
          </mxGeometry>
        </mxCell>
        <mxCell id="xzN3ZJDw3OYeMU-9DskR-56" style="edgeStyle=orthogonalEdgeStyle;rounded=0;orthogonalLoop=1;jettySize=auto;html=1;exitX=1;exitY=0.5;exitDx=0;exitDy=0;" edge="1" parent="3nuBFxr9cyL0pnOWT2aG-3" source="xzN3ZJDw3OYeMU-9DskR-52" target="xzN3ZJDw3OYeMU-9DskR-55">
          <mxGeometry relative="1" as="geometry" />
        </mxCell>
        <mxCell id="xzN3ZJDw3OYeMU-9DskR-59" style="edgeStyle=orthogonalEdgeStyle;rounded=0;orthogonalLoop=1;jettySize=auto;html=1;exitX=0;exitY=0.5;exitDx=0;exitDy=0;entryX=1;entryY=0.5;entryDx=0;entryDy=0;" edge="1" parent="3nuBFxr9cyL0pnOWT2aG-3" source="xzN3ZJDw3OYeMU-9DskR-57" target="xzN3ZJDw3OYeMU-9DskR-58">
          <mxGeometry relative="1" as="geometry" />
        </mxCell>
        <mxCell id="xzN3ZJDw3OYeMU-9DskR-61" style="edgeStyle=orthogonalEdgeStyle;rounded=0;orthogonalLoop=1;jettySize=auto;html=1;exitX=0;exitY=0.5;exitDx=0;exitDy=0;" edge="1" parent="3nuBFxr9cyL0pnOWT2aG-3" source="xzN3ZJDw3OYeMU-9DskR-58" target="xzN3ZJDw3OYeMU-9DskR-49">
          <mxGeometry relative="1" as="geometry" />
        </mxCell>
        <mxCell id="xzN3ZJDw3OYeMU-9DskR-62" value="Update Status to Completed" style="edgeLabel;html=1;align=center;verticalAlign=middle;resizable=0;points=[];" vertex="1" connectable="0" parent="xzN3ZJDw3OYeMU-9DskR-61">
          <mxGeometry x="0.0102" relative="1" as="geometry">
            <mxPoint x="55" as="offset" />
          </mxGeometry>
        </mxCell>
        <mxCell id="3nuBFxr9cyL0pnOWT2aG-15" value="Warehouse to Store Transfer" style="shape=tableRow;horizontal=0;swimlaneHead=0;swimlaneBody=0;top=0;left=0;bottom=0;right=0;fillColor=none;points=[[0,0.5],[1,0.5]];portConstraint=eastwest;startSize=40;collapsible=0;recursiveResize=0;expand=0;fontStyle=1;" parent="3nuBFxr9cyL0pnOWT2aG-1" vertex="1">
          <mxGeometry y="610" width="1360" height="181" as="geometry" />
        </mxCell>
        <mxCell id="3nuBFxr9cyL0pnOWT2aG-16" value="" style="swimlane;swimlaneHead=0;swimlaneBody=0;connectable=0;fillColor=none;startSize=0;collapsible=0;recursiveResize=0;expand=0;fontStyle=1;" parent="3nuBFxr9cyL0pnOWT2aG-15" vertex="1">
          <mxGeometry x="40" width="420" height="181" as="geometry">
            <mxRectangle width="420" height="181" as="alternateBounds" />
          </mxGeometry>
        </mxCell>
        <mxCell id="3nuBFxr9cyL0pnOWT2aG-18" value="" style="swimlane;swimlaneHead=0;swimlaneBody=0;connectable=0;fillColor=none;startSize=0;collapsible=0;recursiveResize=0;expand=0;fontStyle=1;" parent="3nuBFxr9cyL0pnOWT2aG-15" vertex="1">
          <mxGeometry x="460" width="688" height="181" as="geometry">
            <mxRectangle width="688" height="181" as="alternateBounds" />
          </mxGeometry>
        </mxCell>
        <mxCell id="xzN3ZJDw3OYeMU-9DskR-32" value="Create Sales&lt;br&gt;Order Request To&lt;br&gt;WMS" style="html=1;dashed=0;whitespace=wrap;" vertex="1" parent="3nuBFxr9cyL0pnOWT2aG-18">
          <mxGeometry x="333" y="121" width="100" height="50" as="geometry" />
        </mxCell>
        <mxCell id="xzN3ZJDw3OYeMU-9DskR-42" style="edgeStyle=orthogonalEdgeStyle;rounded=0;orthogonalLoop=1;jettySize=auto;html=1;exitX=0.5;exitY=1;exitDx=0;exitDy=0;" edge="1" parent="3nuBFxr9cyL0pnOWT2aG-18" source="xzN3ZJDw3OYeMU-9DskR-38" target="xzN3ZJDw3OYeMU-9DskR-32">
          <mxGeometry relative="1" as="geometry" />
        </mxCell>
        <mxCell id="xzN3ZJDw3OYeMU-9DskR-38" value="Flag Request as&amp;nbsp;&lt;br&gt;Store Transfer" style="html=1;dashed=0;whitespace=wrap;" vertex="1" parent="3nuBFxr9cyL0pnOWT2aG-18">
          <mxGeometry x="333" y="21" width="100" height="50" as="geometry" />
        </mxCell>
        <mxCell id="3nuBFxr9cyL0pnOWT2aG-23" value="" style="swimlane;swimlaneHead=0;swimlaneBody=0;connectable=0;fillColor=none;startSize=0;collapsible=0;recursiveResize=0;expand=0;fontStyle=1;" parent="3nuBFxr9cyL0pnOWT2aG-15" vertex="1">
          <mxGeometry x="1148" width="212" height="181" as="geometry">
            <mxRectangle width="212" height="181" as="alternateBounds" />
          </mxGeometry>
        </mxCell>
        <mxCell id="xzN3ZJDw3OYeMU-9DskR-40" style="edgeStyle=orthogonalEdgeStyle;rounded=0;orthogonalLoop=1;jettySize=auto;html=1;exitX=0.5;exitY=1;exitDx=0;exitDy=0;entryX=0.5;entryY=0;entryDx=0;entryDy=0;" edge="1" parent="3nuBFxr9cyL0pnOWT2aG-1" source="xzN3ZJDw3OYeMU-9DskR-21" target="xzN3ZJDw3OYeMU-9DskR-38">
          <mxGeometry relative="1" as="geometry">
            <Array as="points">
              <mxPoint x="676" y="450" />
              <mxPoint x="843" y="450" />
            </Array>
          </mxGeometry>
        </mxCell>
        <mxCell id="xzN3ZJDw3OYeMU-9DskR-41" value="No" style="edgeLabel;html=1;align=center;verticalAlign=middle;resizable=0;points=[];" vertex="1" connectable="0" parent="xzN3ZJDw3OYeMU-9DskR-40">
          <mxGeometry x="-0.1562" y="-1" relative="1" as="geometry">
            <mxPoint y="1" as="offset" />
          </mxGeometry>
        </mxCell>
      </root>
    </mxGraphModel>
  </diagram>
  <diagram id="RJwbgoOpxZnAxT2iGMrX" name="Systems Flows">
    <mxGraphModel dx="1422" dy="794" grid="1" gridSize="10" guides="1" tooltips="1" connect="1" arrows="1" fold="1" page="1" pageScale="1" pageWidth="850" pageHeight="1100" math="0" shadow="0">
      <root>
        <mxCell id="0" />
        <mxCell id="1" parent="0" />
        <mxCell id="-OZ125JAnSbUmQxAYKO4-1" value="" style="sketch=0;points=[[0,0,0],[0.25,0,0],[0.5,0,0],[0.75,0,0],[1,0,0],[0,1,0],[0.25,1,0],[0.5,1,0],[0.75,1,0],[1,1,0],[0,0.25,0],[0,0.5,0],[0,0.75,0],[1,0.25,0],[1,0.5,0],[1,0.75,0]];outlineConnect=0;fontColor=#232F3E;gradientColor=#FF4F8B;gradientDirection=north;fillColor=#BC1356;strokeColor=#ffffff;dashed=0;verticalLabelPosition=bottom;verticalAlign=top;align=center;html=1;fontSize=12;fontStyle=0;aspect=fixed;shape=mxgraph.aws4.resourceIcon;resIcon=mxgraph.aws4.api_gateway;" vertex="1" parent="1">
          <mxGeometry x="200" y="80" width="78" height="78" as="geometry" />
        </mxCell>
        <mxCell id="-OZ125JAnSbUmQxAYKO4-2" value="" style="strokeColor=#dddddd;shadow=1;strokeWidth=1;rounded=1;absoluteArcSize=1;arcSize=2;" vertex="1" parent="1">
          <mxGeometry x="189" y="318" width="100" height="44" as="geometry" />
        </mxCell>
        <mxCell id="-OZ125JAnSbUmQxAYKO4-3" value="Logs API" style="sketch=0;dashed=0;connectable=0;html=1;fillColor=#757575;strokeColor=none;shape=mxgraph.gcp2.logs_api;part=1;labelPosition=right;verticalLabelPosition=middle;align=left;verticalAlign=middle;spacingLeft=5;fontSize=12;" vertex="1" parent="-OZ125JAnSbUmQxAYKO4-2">
          <mxGeometry y="0.5" width="32" height="32" relative="1" as="geometry">
            <mxPoint x="5" y="-16" as="offset" />
          </mxGeometry>
        </mxCell>
        <mxCell id="-OZ125JAnSbUmQxAYKO4-4" value="Splunk" style="rounded=0;whiteSpace=wrap;html=1;" vertex="1" parent="1">
          <mxGeometry x="179" y="410" width="120" height="60" as="geometry" />
        </mxCell>
        <mxCell id="-OZ125JAnSbUmQxAYKO4-5" value="" style="sketch=0;points=[[0,0,0],[0.25,0,0],[0.5,0,0],[0.75,0,0],[1,0,0],[0,1,0],[0.25,1,0],[0.5,1,0],[0.75,1,0],[1,1,0],[0,0.25,0],[0,0.5,0],[0,0.75,0],[1,0.25,0],[1,0.5,0],[1,0.75,0]];points=[[0,0,0],[0.25,0,0],[0.5,0,0],[0.75,0,0],[1,0,0],[0,1,0],[0.25,1,0],[0.5,1,0],[0.75,1,0],[1,1,0],[0,0.25,0],[0,0.5,0],[0,0.75,0],[1,0.25,0],[1,0.5,0],[1,0.75,0]];outlineConnect=0;fontColor=#232F3E;gradientColor=#F34482;gradientDirection=north;fillColor=#BC1356;strokeColor=#ffffff;dashed=0;verticalLabelPosition=bottom;verticalAlign=top;align=center;html=1;fontSize=12;fontStyle=0;aspect=fixed;shape=mxgraph.aws4.resourceIcon;resIcon=mxgraph.aws4.cloudwatch_2;" vertex="1" parent="1">
          <mxGeometry x="200" y="200" width="78" height="78" as="geometry" />
        </mxCell>
        <mxCell id="-OZ125JAnSbUmQxAYKO4-6" value="Queue" style="sketch=0;outlineConnect=0;fontColor=#232F3E;gradientColor=none;strokeColor=#232F3E;fillColor=#ffffff;dashed=0;verticalLabelPosition=bottom;verticalAlign=top;align=center;html=1;fontSize=12;fontStyle=0;aspect=fixed;shape=mxgraph.aws4.resourceIcon;resIcon=mxgraph.aws4.queue;" vertex="1" parent="1">
          <mxGeometry x="340" y="89" width="60" height="60" as="geometry" />
        </mxCell>
      </root>
    </mxGraphModel>
  </diagram>
</mxfile>
